<?xml version="1.0" encoding="utf-8"?>
<!-- Generator: Adobe Illustrator 24.1.3, SVG Export Plug-In . SVG Version: 6.00 Build 0)  -->
<svg version="1.1" id="flcn-logo-svg" xmlns="http://www.w3.org/2000/svg" xmlns:xlink="http://www.w3.org/1999/xlink" x="0px"
	 y="0px" viewBox="0 0 2653.6 3440.5" style="enable-background:new 0 0 2653.6 3440.5;" xml:space="preserve">
<style type="text/css">
	.st1{
		fill: rgba(255,255,255,1);
		animation: fade-blink 2.5s ease-in-out infinite;
	}
	@keyframes fade-blink {
		0% {
			opacity: 1;
		}
		50% {
			opacity: 0.5;
		}
		100% {
			opacity: 1;
		}
	}
</style>
<g>
	<g class="st1">
		<!-- <path class="st0" d="M1094.8,1399.9c-29,28.2-57.6,59.7-77.8,96.1c-20.4,36.4-29.3,73-39.7,108.4c27.5-25.1,54.7-51,83.8-66.7
			l0.9-0.5c45.9-25.1,64.6-81.1,38.8-126.7L1094.8,1399.9z"/> -->
		<path class="st0" d="M1870.3,1505.7c5.2-137.5,191.1-227.7,317.8-347.9c5.5,69.1,7.7,139.5,7,210.3
			c47.8-107.6,90.8-218.8,120.4-338.8c14.6-60,25.8-122.4,30.4-188.2c2.8-41.8,2.3-83.8-1.3-125.6C2459.6,544.7,2595.2,247,2653.6,0
			c-166,557.1-639,814.2-639,814.2s-31.1,44.8-67.8,123.3c29.4-118.1,75.5-244.8,148.3-363c-182.8,214.3-310.9,494.8-358.8,617.1
			c-166.6-213.1-409.6-284.2-409.6-284.2s-200.7,59.7-395.3,293.9C886.9,1085.1,757,795,568.9,574.5
			c83.3,135.3,131.7,281.7,160,413.7c-45.4-109.6-90-174-90-174S166,557.1,0,0c58.5,247.1,194.2,544.9,309.2,715.7
			c-3.6,41.7-4.1,83.6-1.3,125.4c4.5,65.8,15.7,128.2,30.4,188.2c29.6,120,72.6,231.2,120.4,338.8c-0.6-70.8,1.5-141.1,7-210.2
			c126.7,120.2,312.5,210.3,317.7,347.8c-4.5,17.7-101.6,251-505.2,95.9c545.1,716.2,888,1201.4,1048.7,1838.8
			c-79.4-772-809.5-1644.7-700.5-1651c268-15.6,366-713.7,700.5-713.7c135.7,0,414.9,202.1,414.8,476.2
			c-76-61.3-158.3-110.3-242.8-145.9c155.3,134.4,205.3,297.8,214.5,433.5c-83.4,526.1-318.3,1196.8-386.5,1600.9
			c-2.8,16.4,373.7-1145.1,1048.7-1838.8C1971.8,1756.6,1874.8,1523.4,1870.3,1505.7z M615.2,874.4
			c33.2,137,206.1,279.2,206.1,279.2C657.5,1096.4,572.3,1053.6,615.2,874.4z M2042.5,874.4c42.9,179.1-42.3,222-206.1,279.2
			C1836.4,1153.6,2009.3,1011.4,2042.5,874.4z"/>
	</g>
</g>
</svg>
